<svg xmlns="http://www.w3.org/2000/svg" viewBox="0 0 258 259" width="258" height="259" role="img" aria-label="Kit logomark">
  <title>Kit logomark</title>
  <path fill="#FFFFFF" transform="translate(86.75,94.625)" d="M0 0 C0.70302246 0.00161133 1.40604492 0.00322266 2.13037109 0.00488281 C14.29125048 0.28957634 22.54131281 6.4186563 30.6875 14.88085938 C32.21980719 16.49211145 33.74594919 18.1092509 35.265625 19.73242188 C41.09386122 25.7552653 46.98916399 30.30825617 55.3515625 32.00390625 C66.03649231 31.72272389 71.11174225 27.65535484 78.828125 20.5703125 C85.75174188 14.29438881 90.40793015 12.57304039 99.97265625 12.9609375 C106.80066242 13.82359382 110.81589446 17.29293915 115.02734375 22.59375 C118.94980924 28.30826841 119.03932004 34.81925064 117.890625 41.44921875 C116.05967352 47.7462073 111.70105554 51.93222808 106.25 55.375 C99.5883668 57.83177253 93.8495718 57.83585728 87.25 55.375 C83.54868878 53.33550198 80.77964524 50.95361018 77.875 47.9375 C72.1380232 42.00929064 66.02868156 38.29637743 57.6875 37.9375 C56.23150391 37.84662109 56.23150391 37.84662109 54.74609375 37.75390625 C43.82850812 39.69345498 36.57304259 48.74253124 29.39453125 56.47460938 C22.24320815 63.93917225 14.43275925 69.37894606 3.80493164 69.66772461 C-8.20364465 69.77987665 -16.92216078 66.9231453 -25.75 58.375 C-32.15285988 50.69476159 -34.39668032 41.23586048 -34.09375 31.390625 C-32.96168338 21.45931326 -28.27197697 12.85799873 -20.5078125 6.5546875 C-13.9492795 1.98358874 -8.04830691 -0.01925893 0 0 Z"></path>
</svg>