<?xml version="1.0" encoding="UTF-8"?>
<svg xmlns="http://www.w3.org/2000/svg" viewBox="0 0 1600 900" preserveAspectRatio="xMidYMid slice" aria-hidden="true">
  <defs>
    <radialGradient id="stk-prt-fade" cx="50%" cy="42%" r="58%">
      <stop offset="0%" stop-color="#fff" stop-opacity="0"></stop>
      <stop offset="32%" stop-color="#fff" stop-opacity="0.05"></stop>
      <stop offset="55%" stop-color="#fff" stop-opacity="0.55"></stop>
      <stop offset="100%" stop-color="#fff" stop-opacity="0.95"></stop>
    </radialGradient>
    <radialGradient id="stk-prt-bloom" cx="50%" cy="50%" r="50%">
      <stop offset="0%" stop-color="#B5533D" stop-opacity="0.7"></stop>
      <stop offset="60%" stop-color="#B5533D" stop-opacity="0.15"></stop>
      <stop offset="100%" stop-color="#B5533D" stop-opacity="0"></stop>
    </radialGradient>
    <mask id="stk-prt-mask"><rect width="1600" height="900" fill="url(#stk-prt-fade)"></rect></mask>
  </defs>
  <g mask="url(#stk-prt-mask)">
    <g stroke="#1A1814" stroke-width="0.6" fill="none">
    <line x1="1458.82" y1="768.63" x2="1278.64" y2="684.97" opacity="0.11"></line>
    <line x1="1458.82" y1="768.63" x2="1481.67" y2="590.46" opacity="0.11"></line>
    <line x1="1458.82" y1="768.63" x2="1554.44" y2="695.66" opacity="0.14"></line>
    <line x1="1458.82" y1="768.63" x2="1467.96" y2="766.00" opacity="0.18"></line>
    <line x1="1458.82" y1="768.63" x2="1423.17" y2="644.71" opacity="0.13"></line>
    <line x1="1458.82" y1="768.63" x2="1525.21" y2="588.10" opacity="0.11"></line>
    <line x1="395.00" y1="309.84" x2="389.58" y2="137.40" opacity="0.12"></line>
    <line x1="395.00" y1="309.84" x2="238.50" y2="384.23" opacity="0.12"></line>
    <line x1="395.00" y1="309.84" x2="348.79" y2="161.50" opacity="0.12"></line>
    <line x1="395.00" y1="309.84" x2="196.36" y2="252.69" opacity="0.10"></line>
    <line x1="395.00" y1="309.84" x2="328.56" y2="122.04" opacity="0.11"></line>
    <line x1="395.00" y1="309.84" x2="486.32" y2="433.46" opacity="0.12"></line>
    <line x1="1402.86" y1="185.93" x2="1349.98" y2="257.83" opacity="0.15"></line>
    <line x1="1402.86" y1="185.93" x2="1432.17" y2="107.84" opacity="0.15"></line>
    <line x1="1402.86" y1="185.93" x2="1464.16" y2="203.28" opacity="0.16"></line>
    <line x1="1402.86" y1="185.93" x2="1445.24" y2="400.87" opacity="0.10"></line>
    <line x1="1402.86" y1="185.93" x2="1313.18" y2="372.52" opacity="0.10"></line>
    <line x1="1402.86" y1="185.93" x2="1418.16" y2="228.50" opacity="0.16"></line>
    <line x1="1402.86" y1="185.93" x2="1574.62" y2="168.94" opacity="0.12"></line>
    <line x1="216.22" y1="640.57" x2="117.15" y2="628.05" opacity="0.14"></line>
    <line x1="216.22" y1="640.57" x2="206.29" y2="534.90" opacity="0.14"></line>
    <line x1="216.22" y1="640.57" x2="79.79" y2="629.95" opacity="0.13"></line>
    <line x1="216.22" y1="640.57" x2="198.13" y2="427.86" opacity="0.10"></line>
    <line x1="216.22" y1="640.57" x2="239.85" y2="541.01" opacity="0.14"></line>
    <line x1="389.58" y1="137.40" x2="348.79" y2="161.50" opacity="0.16"></line>
    <line x1="389.58" y1="137.40" x2="328.56" y2="122.04" opacity="0.16"></line>
    <line x1="117.15" y1="628.05" x2="206.29" y2="534.90" opacity="0.13"></line>
    <line x1="117.15" y1="628.05" x2="79.79" y2="629.95" opacity="0.17"></line>
    <line x1="117.15" y1="628.05" x2="198.13" y2="427.86" opacity="0.10"></line>
    <line x1="117.15" y1="628.05" x2="239.85" y2="541.01" opacity="0.13"></line>
    <line x1="1088.22" y1="726.90" x2="1278.64" y2="684.97" opacity="0.11"></line>
    <line x1="1088.22" y1="726.90" x2="882.85" y2="688.31" opacity="0.10"></line>
    <line x1="1088.22" y1="726.90" x2="1120.74" y2="509.73" opacity="0.10"></line>
    <line x1="1088.22" y1="726.90" x2="1208.93" y2="764.83" opacity="0.13"></line>
    <line x1="1088.22" y1="726.90" x2="1216.91" y2="837.20" opacity="0.12"></line>
    <line x1="430.76" y1="794.49" x2="364.46" y2="810.67" opacity="0.16"></line>
    <line x1="430.76" y1="794.49" x2="424.83" y2="723.49" opacity="0.15"></line>
    <line x1="430.76" y1="794.49" x2="498.22" y2="670.59" opacity="0.13"></line>
    <line x1="430.76" y1="794.49" x2="497.47" y2="667.32" opacity="0.13"></line>
    <line x1="430.76" y1="794.49" x2="435.10" y2="693.04" opacity="0.14"></line>
    <line x1="1278.64" y1="684.97" x2="1244.58" y2="525.76" opacity="0.12"></line>
    <line x1="1278.64" y1="684.97" x2="1208.93" y2="764.83" opacity="0.14"></line>
    <line x1="1278.64" y1="684.97" x2="1364.00" y2="498.63" opacity="0.11"></line>
    <line x1="1278.64" y1="684.97" x2="1467.96" y2="766.00" opacity="0.11"></line>
    <line x1="1278.64" y1="684.97" x2="1423.17" y2="644.71" opacity="0.13"></line>
    <line x1="1278.64" y1="684.97" x2="1216.91" y2="837.20" opacity="0.12"></line>
    <line x1="238.50" y1="384.23" x2="196.36" y2="252.69" opacity="0.13"></line>
    <line x1="238.50" y1="384.23" x2="206.29" y2="534.90" opacity="0.12"></line>
    <line x1="238.50" y1="384.23" x2="198.13" y2="427.86" opacity="0.16"></line>
    <line x1="238.50" y1="384.23" x2="154.11" y2="330.01" opacity="0.14"></line>
    <line x1="238.50" y1="384.23" x2="239.85" y2="541.01" opacity="0.12"></line>
    <line x1="1228.78" y1="451.09" x2="1120.74" y2="509.73" opacity="0.14"></line>
    <line x1="1228.78" y1="451.09" x2="1244.58" y2="525.76" opacity="0.15"></line>
    <line x1="1228.78" y1="451.09" x2="1417.01" y2="445.04" opacity="0.11"></line>
    <line x1="1228.78" y1="451.09" x2="1219.53" y2="411.83" opacity="0.17"></line>
    <line x1="1228.78" y1="451.09" x2="1364.00" y2="498.63" opacity="0.13"></line>
    <line x1="1228.78" y1="451.09" x2="1313.18" y2="372.52" opacity="0.14"></line>
    <line x1="348.79" y1="161.50" x2="196.36" y2="252.69" opacity="0.12"></line>
    <line x1="348.79" y1="161.50" x2="328.56" y2="122.04" opacity="0.16"></line>
    <line x1="12.14" y1="391.19" x2="198.13" y2="427.86" opacity="0.11"></line>
    <line x1="12.14" y1="391.19" x2="154.11" y2="330.01" opacity="0.12"></line>
    <line x1="1349.98" y1="257.83" x2="1432.17" y2="107.84" opacity="0.12"></line>
    <line x1="1349.98" y1="257.83" x2="1464.16" y2="203.28" opacity="0.13"></line>
    <line x1="1349.98" y1="257.83" x2="1445.24" y2="400.87" opacity="0.12"></line>
    <line x1="1349.98" y1="257.83" x2="1417.01" y2="445.04" opacity="0.11"></line>
    <line x1="1349.98" y1="257.83" x2="1219.53" y2="411.83" opacity="0.11"></line>
    <line x1="1349.98" y1="257.83" x2="1313.18" y2="372.52" opacity="0.14"></line>
    <line x1="1349.98" y1="257.83" x2="1418.16" y2="228.50" opacity="0.15"></line>
    <line x1="196.36" y1="252.69" x2="328.56" y2="122.04" opacity="0.11"></line>
    <line x1="196.36" y1="252.69" x2="198.13" y2="427.86" opacity="0.12"></line>
    <line x1="196.36" y1="252.69" x2="154.11" y2="330.01" opacity="0.15"></line>
    <line x1="1432.17" y1="107.84" x2="1464.16" y2="203.28" opacity="0.14"></line>
    <line x1="1432.17" y1="107.84" x2="1418.16" y2="228.50" opacity="0.14"></line>
    <line x1="1432.17" y1="107.84" x2="1574.62" y2="168.94" opacity="0.12"></line>
    <line x1="1120.74" y1="509.73" x2="1244.58" y2="525.76" opacity="0.13"></line>
    <line x1="1120.74" y1="509.73" x2="1219.53" y2="411.83" opacity="0.13"></line>
    <line x1="206.29" y1="534.90" x2="79.79" y2="629.95" opacity="0.12"></line>
    <line x1="206.29" y1="534.90" x2="198.13" y2="427.86" opacity="0.14"></line>
    <line x1="206.29" y1="534.90" x2="154.11" y2="330.01" opacity="0.10"></line>
    <line x1="206.29" y1="534.90" x2="239.85" y2="541.01" opacity="0.17"></line>
    <line x1="1464.16" y1="203.28" x2="1445.24" y2="400.87" opacity="0.11"></line>
    <line x1="1464.16" y1="203.28" x2="1418.16" y2="228.50" opacity="0.16"></line>
    <line x1="1464.16" y1="203.28" x2="1574.62" y2="168.94" opacity="0.14"></line>
    <line x1="1481.67" y1="590.46" x2="1445.24" y2="400.87" opacity="0.11"></line>
    <line x1="1481.67" y1="590.46" x2="1417.01" y2="445.04" opacity="0.12"></line>
    <line x1="1481.67" y1="590.46" x2="1554.44" y2="695.66" opacity="0.13"></line>
    <line x1="1481.67" y1="590.46" x2="1364.00" y2="498.63" opacity="0.13"></line>
    <line x1="1481.67" y1="590.46" x2="1467.96" y2="766.00" opacity="0.12"></line>
    <line x1="1481.67" y1="590.46" x2="1423.17" y2="644.71" opacity="0.15"></line>
    <line x1="1481.67" y1="590.46" x2="1525.21" y2="588.10" opacity="0.16"></line>
    <line x1="1445.24" y1="400.87" x2="1417.01" y2="445.04" opacity="0.16"></line>
    <line x1="1445.24" y1="400.87" x2="1364.00" y2="498.63" opacity="0.13"></line>
    <line x1="1445.24" y1="400.87" x2="1313.18" y2="372.52" opacity="0.13"></line>
    <line x1="1445.24" y1="400.87" x2="1418.16" y2="228.50" opacity="0.12"></line>
    <line x1="1445.24" y1="400.87" x2="1525.21" y2="588.10" opacity="0.11"></line>
    <line x1="1244.58" y1="525.76" x2="1417.01" y2="445.04" opacity="0.11"></line>
    <line x1="1244.58" y1="525.76" x2="1219.53" y2="411.83" opacity="0.14"></line>
    <line x1="1244.58" y1="525.76" x2="1364.00" y2="498.63" opacity="0.14"></line>
    <line x1="1244.58" y1="525.76" x2="1313.18" y2="372.52" opacity="0.12"></line>
    <line x1="1244.58" y1="525.76" x2="1423.17" y2="644.71" opacity="0.10"></line>
    <line x1="1417.01" y1="445.04" x2="1219.53" y2="411.83" opacity="0.11"></line>
    <line x1="1417.01" y1="445.04" x2="1364.00" y2="498.63" opacity="0.15"></line>
    <line x1="1417.01" y1="445.04" x2="1313.18" y2="372.52" opacity="0.13"></line>
    <line x1="1417.01" y1="445.04" x2="1418.16" y2="228.50" opacity="0.10"></line>
    <line x1="1417.01" y1="445.04" x2="1423.17" y2="644.71" opacity="0.11"></line>
    <line x1="1417.01" y1="445.04" x2="1525.21" y2="588.10" opacity="0.11"></line>
    <line x1="364.46" y1="810.67" x2="424.83" y2="723.49" opacity="0.14"></line>
    <line x1="364.46" y1="810.67" x2="498.22" y2="670.59" opacity="0.11"></line>
    <line x1="364.46" y1="810.67" x2="497.47" y2="667.32" opacity="0.11"></line>
    <line x1="364.46" y1="810.67" x2="435.10" y2="693.04" opacity="0.13"></line>
    <line x1="79.79" y1="629.95" x2="239.85" y2="541.01" opacity="0.11"></line>
    <line x1="1208.93" y1="764.83" x2="1216.91" y2="837.20" opacity="0.15"></line>
    <line x1="1219.53" y1="411.83" x2="1364.00" y2="498.63" opacity="0.12"></line>
    <line x1="1219.53" y1="411.83" x2="1313.18" y2="372.52" opacity="0.14"></line>
    <line x1="424.83" y1="723.49" x2="498.22" y2="670.59" opacity="0.15"></line>
    <line x1="424.83" y1="723.49" x2="497.47" y2="667.32" opacity="0.15"></line>
    <line x1="424.83" y1="723.49" x2="435.10" y2="693.04" opacity="0.17"></line>
    <line x1="498.22" y1="670.59" x2="497.47" y2="667.32" opacity="0.18"></line>
    <line x1="498.22" y1="670.59" x2="435.10" y2="693.04" opacity="0.16"></line>
    <line x1="497.47" y1="667.32" x2="435.10" y2="693.04" opacity="0.16"></line>
    <line x1="1554.44" y1="695.66" x2="1467.96" y2="766.00" opacity="0.14"></line>
    <line x1="1554.44" y1="695.66" x2="1423.17" y2="644.71" opacity="0.13"></line>
    <line x1="1554.44" y1="695.66" x2="1525.21" y2="588.10" opacity="0.14"></line>
    <line x1="198.13" y1="427.86" x2="154.11" y2="330.01" opacity="0.14"></line>
    <line x1="198.13" y1="427.86" x2="239.85" y2="541.01" opacity="0.14"></line>
    <line x1="1364.00" y1="498.63" x2="1313.18" y2="372.52" opacity="0.13"></line>
    <line x1="1364.00" y1="498.63" x2="1423.17" y2="644.71" opacity="0.12"></line>
    <line x1="1364.00" y1="498.63" x2="1525.21" y2="588.10" opacity="0.11"></line>
    <line x1="1313.18" y1="372.52" x2="1418.16" y2="228.50" opacity="0.12"></line>
    <line x1="1467.96" y1="766.00" x2="1423.17" y2="644.71" opacity="0.13"></line>
    <line x1="1467.96" y1="766.00" x2="1525.21" y2="588.10" opacity="0.11"></line>
    <line x1="1418.16" y1="228.50" x2="1574.62" y2="168.94" opacity="0.12"></line>
    <line x1="1423.17" y1="644.71" x2="1525.21" y2="588.10" opacity="0.14"></line>
    </g>
    <g>
    <circle cx="1458.82" cy="768.63" r="12.33" fill="url(#stk-prt-bloom)" opacity="0.17"></circle>
    <circle cx="395.00" cy="309.84" r="27.14" fill="url(#stk-prt-bloom)" opacity="0.35"></circle>
    <circle cx="1402.86" cy="185.93" r="11.31" fill="url(#stk-prt-bloom)" opacity="0.28"></circle>
    <circle cx="216.22" cy="640.57" r="18.52" fill="url(#stk-prt-bloom)" opacity="0.27"></circle>
    <circle cx="389.58" cy="137.40" r="22.47" fill="url(#stk-prt-bloom)" opacity="0.35"></circle>
    <circle cx="117.15" cy="628.05" r="28.50" fill="url(#stk-prt-bloom)" opacity="0.20"></circle>
    <circle cx="1088.22" cy="726.90" r="30.56" fill="url(#stk-prt-bloom)" opacity="0.35"></circle>
    <circle cx="430.76" cy="794.49" r="28.31" fill="url(#stk-prt-bloom)" opacity="0.34"></circle>
    <circle cx="1278.64" cy="684.97" r="15.76" fill="url(#stk-prt-bloom)" opacity="0.33"></circle>
    <circle cx="48.48" cy="64.43" r="15.50" fill="url(#stk-prt-bloom)" opacity="0.13"></circle>
    <circle cx="238.50" cy="384.23" r="16.29" fill="url(#stk-prt-bloom)" opacity="0.33"></circle>
    <circle cx="1228.78" cy="451.09" r="17.23" fill="url(#stk-prt-bloom)" opacity="0.35"></circle>
    <circle cx="348.79" cy="161.50" r="9.93" fill="url(#stk-prt-bloom)" opacity="0.35"></circle>
    <circle cx="12.14" cy="391.19" r="14.24" fill="url(#stk-prt-bloom)" opacity="0.15"></circle>
    <circle cx="1349.98" cy="257.83" r="30.35" fill="url(#stk-prt-bloom)" opacity="0.33"></circle>
    <circle cx="196.36" cy="252.69" r="16.20" fill="url(#stk-prt-bloom)" opacity="0.29"></circle>
    <circle cx="882.85" cy="688.31" r="30.37" fill="url(#stk-prt-bloom)" opacity="0.35"></circle>
    <circle cx="1432.17" cy="107.84" r="28.68" fill="url(#stk-prt-bloom)" opacity="0.23"></circle>
    <circle cx="1120.74" cy="509.73" r="11.82" fill="url(#stk-prt-bloom)" opacity="0.35"></circle>
    <circle cx="206.29" cy="534.90" r="16.77" fill="url(#stk-prt-bloom)" opacity="0.29"></circle>
    <circle cx="328.56" cy="122.04" r="12.70" fill="url(#stk-prt-bloom)" opacity="0.35"></circle>
    <circle cx="1464.16" cy="203.28" r="29.12" fill="url(#stk-prt-bloom)" opacity="0.23"></circle>
    <circle cx="1481.67" cy="590.46" r="15.93" fill="url(#stk-prt-bloom)" opacity="0.21"></circle>
    <circle cx="1445.24" cy="400.87" r="18.07" fill="url(#stk-prt-bloom)" opacity="0.27"></circle>
    <circle cx="1244.58" cy="525.76" r="18.45" fill="url(#stk-prt-bloom)" opacity="0.35"></circle>
    <circle cx="1417.01" cy="445.04" r="18.41" fill="url(#stk-prt-bloom)" opacity="0.29"></circle>
    <circle cx="364.46" cy="810.67" r="27.51" fill="url(#stk-prt-bloom)" opacity="0.29"></circle>
    <circle cx="79.79" cy="629.95" r="9.31" fill="url(#stk-prt-bloom)" opacity="0.17"></circle>
    <circle cx="1208.93" cy="764.83" r="26.21" fill="url(#stk-prt-bloom)" opacity="0.33"></circle>
    <circle cx="1123.37" cy="171.11" r="30.78" fill="url(#stk-prt-bloom)" opacity="0.35"></circle>
    <circle cx="1219.53" cy="411.83" r="26.80" fill="url(#stk-prt-bloom)" opacity="0.35"></circle>
    <circle cx="424.83" cy="723.49" r="28.54" fill="url(#stk-prt-bloom)" opacity="0.35"></circle>
    <circle cx="498.22" cy="670.59" r="21.94" fill="url(#stk-prt-bloom)" opacity="0.35"></circle>
    <circle cx="497.47" cy="667.32" r="24.65" fill="url(#stk-prt-bloom)" opacity="0.35"></circle>
    <circle cx="1554.44" cy="695.66" r="11.68" fill="url(#stk-prt-bloom)" opacity="0.13"></circle>
    <circle cx="198.13" cy="427.86" r="20.45" fill="url(#stk-prt-bloom)" opacity="0.30"></circle>
    <circle cx="1364.00" cy="498.63" r="17.85" fill="url(#stk-prt-bloom)" opacity="0.32"></circle>
    <circle cx="1313.18" cy="372.52" r="22.81" fill="url(#stk-prt-bloom)" opacity="0.35"></circle>
    <circle cx="154.11" cy="330.01" r="29.67" fill="url(#stk-prt-bloom)" opacity="0.26"></circle>
    <circle cx="486.32" cy="433.46" r="10.13" fill="url(#stk-prt-bloom)" opacity="0.35"></circle>
    <circle cx="1467.96" cy="766.00" r="23.64" fill="url(#stk-prt-bloom)" opacity="0.16"></circle>
    <circle cx="1418.16" cy="228.50" r="25.71" fill="url(#stk-prt-bloom)" opacity="0.27"></circle>
    <circle cx="435.10" cy="693.04" r="17.00" fill="url(#stk-prt-bloom)" opacity="0.35"></circle>
    <circle cx="1574.62" cy="168.94" r="21.89" fill="url(#stk-prt-bloom)" opacity="0.14"></circle>
    <circle cx="239.85" cy="541.01" r="10.23" fill="url(#stk-prt-bloom)" opacity="0.32"></circle>
    <circle cx="1423.17" cy="644.71" r="21.58" fill="url(#stk-prt-bloom)" opacity="0.24"></circle>
    <circle cx="1216.91" cy="837.20" r="10.54" fill="url(#stk-prt-bloom)" opacity="0.29"></circle>
    <circle cx="1525.21" cy="588.10" r="9.45" fill="url(#stk-prt-bloom)" opacity="0.18"></circle>
    </g>
    <g fill="#B5533D">
    <circle cx="1458.82" cy="768.63" r="2.74" opacity="0.24"></circle>
    <circle cx="395.00" cy="309.84" r="6.03" opacity="0.50"></circle>
    <circle cx="1402.86" cy="185.93" r="2.51" opacity="0.39"></circle>
    <circle cx="216.22" cy="640.57" r="4.11" opacity="0.39"></circle>
    <circle cx="389.58" cy="137.40" r="4.99" opacity="0.50"></circle>
    <circle cx="117.15" cy="628.05" r="6.33" opacity="0.29"></circle>
    <circle cx="1088.22" cy="726.90" r="6.79" opacity="0.50"></circle>
    <circle cx="430.76" cy="794.49" r="6.29" opacity="0.48"></circle>
    <circle cx="1278.64" cy="684.97" r="3.50" opacity="0.47"></circle>
    <circle cx="48.48" cy="64.43" r="3.44" opacity="0.19"></circle>
    <circle cx="238.50" cy="384.23" r="3.62" opacity="0.48"></circle>
    <circle cx="1228.78" cy="451.09" r="3.83" opacity="0.50"></circle>
    <circle cx="348.79" cy="161.50" r="2.21" opacity="0.50"></circle>
    <circle cx="12.14" cy="391.19" r="3.17" opacity="0.22"></circle>
    <circle cx="1349.98" cy="257.83" r="6.74" opacity="0.47"></circle>
    <circle cx="196.36" cy="252.69" r="3.60" opacity="0.41"></circle>
    <circle cx="882.85" cy="688.31" r="6.75" opacity="0.50"></circle>
    <circle cx="1432.17" cy="107.84" r="6.37" opacity="0.33"></circle>
    <circle cx="1120.74" cy="509.73" r="2.63" opacity="0.50"></circle>
    <circle cx="206.29" cy="534.90" r="3.73" opacity="0.42"></circle>
    <circle cx="328.56" cy="122.04" r="2.82" opacity="0.50"></circle>
    <circle cx="1464.16" cy="203.28" r="6.47" opacity="0.33"></circle>
    <circle cx="1481.67" cy="590.46" r="3.54" opacity="0.30"></circle>
    <circle cx="1445.24" cy="400.87" r="4.02" opacity="0.38"></circle>
    <circle cx="1244.58" cy="525.76" r="4.10" opacity="0.50"></circle>
    <circle cx="1417.01" cy="445.04" r="4.09" opacity="0.41"></circle>
    <circle cx="364.46" cy="810.67" r="6.11" opacity="0.42"></circle>
    <circle cx="79.79" cy="629.95" r="2.07" opacity="0.25"></circle>
    <circle cx="1208.93" cy="764.83" r="5.82" opacity="0.47"></circle>
    <circle cx="1123.37" cy="171.11" r="6.84" opacity="0.50"></circle>
    <circle cx="1219.53" cy="411.83" r="5.96" opacity="0.50"></circle>
    <circle cx="424.83" cy="723.49" r="6.34" opacity="0.50"></circle>
    <circle cx="498.22" cy="670.59" r="4.88" opacity="0.50"></circle>
    <circle cx="497.47" cy="667.32" r="5.48" opacity="0.50"></circle>
    <circle cx="1554.44" cy="695.66" r="2.60" opacity="0.18"></circle>
    <circle cx="198.13" cy="427.86" r="4.55" opacity="0.43"></circle>
    <circle cx="1364.00" cy="498.63" r="3.97" opacity="0.46"></circle>
    <circle cx="1313.18" cy="372.52" r="5.07" opacity="0.50"></circle>
    <circle cx="154.11" cy="330.01" r="6.59" opacity="0.38"></circle>
    <circle cx="486.32" cy="433.46" r="2.25" opacity="0.50"></circle>
    <circle cx="1467.96" cy="766.00" r="5.25" opacity="0.23"></circle>
    <circle cx="1418.16" cy="228.50" r="5.71" opacity="0.39"></circle>
    <circle cx="435.10" cy="693.04" r="3.78" opacity="0.50"></circle>
    <circle cx="1574.62" cy="168.94" r="4.86" opacity="0.20"></circle>
    <circle cx="239.85" cy="541.01" r="2.27" opacity="0.45"></circle>
    <circle cx="1423.17" cy="644.71" r="4.79" opacity="0.34"></circle>
    <circle cx="1216.91" cy="837.20" r="2.34" opacity="0.41"></circle>
    <circle cx="1525.21" cy="588.10" r="2.10" opacity="0.25"></circle>
    </g>
  </g>
</svg>